<?xml version="1.0" encoding="UTF-8"?>
<!-- Generator: Adobe Illustrator 17.1.0, SVG Export Plug-In . SVG Version: 6.00 Build 0)  -->
<!DOCTYPE svg PUBLIC "-//W3C//DTD SVG 1.1//EN" "http://www.w3.org/Graphics/SVG/1.1/DTD/svg11.dtd">
<svg version="1.1" id="Layer_1" xmlns="http://www.w3.org/2000/svg" xmlns:xlink="http://www.w3.org/1999/xlink" x="0px" y="0px" viewBox="0 0 300 300" enable-background="new 0 0 300 300" xml:space="preserve">
<g>
	<polygon fill="#FFFFFF" points="20,128.7 33,128.7 43.7,145.9 54.3,128.7 67.3,128.7 67.3,173.2 55,173.2 55,147.6 43.7,165    43.4,165 32.1,147.7 32.1,173.2 20,173.2  "/>
	<path fill="#FFFFFF" d="M90.6,128.4h11.9l19,44.8h-13.2l-3.2-7.9H87.8l-3.2,7.9h-13L90.6,128.4z M101.4,155.6l-5-12.7l-5,12.7   H101.4z"/>
	<g>
		<path fill="#FFFFFF" d="M125.8,128.7h19.1c11.3,0,18.5,5.8,18.5,15.6v0.1c0,10.5-8.1,16-19.1,16h-6.1v12.7h-12.3V128.7z     M143.9,150.8c4.4,0,7.1-2.3,7.1-5.8v-0.1c0-3.8-2.7-5.9-7.1-5.9h-5.8v11.8H143.9z"/>
		<path fill="#FFFFFF" d="M165.2,166.6l6.9-8.2c4.4,3.5,9.3,5.3,14.4,5.3c3.3,0,5.1-1.1,5.1-3.1v-0.1c0-1.8-1.5-2.9-7.5-4.3    c-9.5-2.2-16.8-4.8-16.8-14v-0.1c0-8.3,6.6-14.2,17.2-14.2c7.6,0,13.5,2,18.3,5.9l-6.2,8.7c-4.1-2.9-8.5-4.4-12.5-4.4    c-3,0-4.5,1.3-4.5,2.9v0.1c0,2,1.5,2.9,7.7,4.3c10.2,2.2,16.6,5.5,16.6,13.9v0.1c0,9.1-7.2,14.5-18,14.5    C178.2,174,170.7,171.5,165.2,166.6"/>
		<path fill="#FFFFFF" d="M211.5,180.3h5.1c-0.2,2.3-0.4,3.9-0.9,6.3h0.1c1.5-4.8,4.1-6.6,6.7-6.6c2.4,0,3.1,1.7,3.1,3.7    c0,1-0.1,2.2-0.2,3l-0.8,6.1h2l-0.2,2.4h-5.1c0.6-3.5,1.3-9.5,1.3-10.8c0-0.9-0.1-1.7-1-1.7c-2.6,0-5.3,5.9-5.9,10.4l-0.3,2.1h-3    c0.3-1.9,0.5-3.9,0.7-5.9l0.6-6.7h-2.2L211.5,180.3z"/>
		<path fill="#FFFFFF" d="M239.1,194.5c-0.7,0.4-2.7,1-4.8,1c-3.8,0-5.9-2.4-5.9-6.2c0-4.2,2.1-9.3,7.8-9.3c2.2,0,4.3,1.1,4.3,3.5    c0,4.7-6.6,5.8-8.9,6c0,2.1,0.9,3.5,3.7,3.5c1.2,0,2.9-0.5,4.2-1.3L239.1,194.5z M235.7,182.4c-2.8,0-3.8,3-4.1,5.1    c2.8-0.5,5.8-1.3,5.8-3.6C237.5,183.1,236.9,182.4,235.7,182.4"/>
		<path fill="#FFFFFF" d="M242.3,180.3h5.4l-0.3,2.7c-0.2,1.9-0.5,5.6-0.5,6.6c0,1.7,0.3,3.3,1.5,3.3c2,0,4-3.6,4.5-11.2l0.1-1.3h3    l-0.4,4.5c-0.1,1.4-0.2,3-0.2,3.9c0,3.1,0.5,4.1,1.7,4.1c2.2,0,4-4.9,4.1-10.2h-2l0.2-2.4h4.8c-0.1,7.7-2.4,15.2-7.7,15.2    c-3.1,0-3.5-3.2-3.5-5.4h-0.1c-0.2,1.5-1.6,5.4-5.2,5.4c-3.2,0-3.9-2.6-3.9-5.8c0-2.4,0.3-4.7,0.4-7.1h-2.2L242.3,180.3z"/>
		<path fill="#FFFFFF" d="M269.4,192.7c0.7,0.2,1.8,0.5,2.7,0.5c1.4,0,2.8-0.6,2.8-2.2c0-1-0.5-1.4-1.7-1.8l-2.7-0.9    c-1.4-0.5-3.3-1.3-3.3-3.8c0-2.2,1.7-4.5,6.1-4.5c2.3,0,3.9,0.6,4.4,0.9l-0.1,3.7h-2.5l0.1-1.8c-0.6-0.3-1.3-0.4-2.3-0.4    c-1.8,0-2.7,0.8-2.7,1.8c0,0.9,0.4,1.3,2.2,1.9l2.6,0.8c1.5,0.5,2.9,1.4,2.9,3.7c0,2.4-1.6,4.9-6,4.9c-2.4,0-4-0.5-5.3-0.9    l0.1-3.8h2.6V192.7z"/>
		<polygon fill="#FFFFFF" points="215.4,159.8 215.4,147.9 242.1,104.5 211.3,104.5 211.3,173.2 250.1,173.2 250.1,159.8   "/>
		<polygon fill="#0087CD" points="233.2,145.6 250.1,145.6 250.1,118.1 249.9,118.1   "/>
		<polygon fill="#FFFFFF" points="280,104.5 267.3,104.5 267.3,145.6 275.9,145.6 275.9,159.8 267.3,159.8 267.3,173.2 280,173.2       "/>
		<polygon fill="#E6E7E8" points="233.2,145.6 250.1,145.6 250.1,118.1 249.9,118.1   "/>
		<polygon fill="#E6E7E8" points="215.4,159.8 249.6,173.2 250.1,173.2 250.1,159.8   "/>
		<polygon fill="#E6E7E8" points="280,111.5 267.3,104.6 267.3,145.6 275.9,145.6 275.9,159.8 267.3,159.8 267.3,173.2 280,173.2       "/>
	</g>
</g>
</svg>